<?xml version="1.0" encoding="UTF-8" standalone="no"?>
<svg width="1970px" height="1970px" viewBox="0 0 1970 1970" version="1.1" xmlns="http://www.w3.org/2000/svg" xmlns:xlink="http://www.w3.org/1999/xlink">
    <!-- Generator: Sketch 3.8.3 (29802) - http://www.bohemiancoding.com/sketch -->
    <title>Group</title>
    <desc>Created with Sketch.</desc>
    <defs></defs>
    <g id="Page-1" stroke="none" stroke-width="1" fill="none" fill-rule="evenodd">
        <g id="Group">
            <path d="M984.703125,1969.40625 C1528.53964,1969.40625 1969.40625,1528.53964 1969.40625,984.703125 C1969.40625,440.866606 1528.53964,0 984.703125,0 C440.866606,0 0,440.866606 0,984.703125 C0,1528.53964 440.866606,1969.40625 984.703125,1969.40625 Z" id="Oval-1" fill="#184B64"></path>
            <g id="levvel-v-light" transform="translate(444.680697, 608.507412)">
                <g transform="translate(0.000000, 0.000000)" id="Page-1">
                    <g transform="translate(0.000000, 0.000000)">
                        <g id="levvel-v-light" transform="translate(0.000000, 0.000000)">
                            <polyline id="Fill-5-Copy" fill="#E26244" points="379.474364 0.611011238 220.556885 0.611011238 439.531567 450.521757 520.787595 280.985111 379.474364 0.611011238"></polyline>
                            <polyline id="Fill-6-Copy" fill="#E26244" points="1092.63982 0.611011238 933.703907 0.611011238 658.745883 540.811147 658.598414 540.542393 486.611399 880.841602 659.999382 880.841602 1092.63982 0.611011238"></polyline>
                            <polyline id="Fill-7-Copy" fill="#A9D5C9" points="872.817183 0.611011238 440.195181 880.841602 0.73425119 0.611011238 159.651729 0.611011238 438.923251 540.811147 713.899705 0.611011238 872.817183 0.611011238"></polyline>
                        </g>
                    </g>
                </g>
            </g>
        </g>
    </g>
</svg>